<svg id="Camada_1" data-name="Camada 1" xmlns="http://www.w3.org/2000/svg" viewBox="0 0 90.6 93.96"><defs><style>.cls-1{fill:#fff;}.cls-2{fill:#22398e;}.cls-3{fill:#f8ab16;}.cls-4{fill:#f6f6f6;}.cls-5{fill:#f3bb30;}</style></defs><path class="cls-1" d="M48.85,84a34.12,34.12,0,0,1-19.51-6.11L25.73,80,19,76V68.16l.64-.37a36,36,0,0,1,0-38.52L19,28.9V21l6.69-3.93,3.61,2.12a34.19,34.19,0,0,1,39,0L72,17.09,78.65,21V28.9l-.63.37a36,36,0,0,1,0,38.52l.63.37V76L72,80l-3.61-2.13A34.17,34.17,0,0,1,48.85,84ZM29.4,76.32l.33.23a32.94,32.94,0,0,0,38.23,0l.33-.23L72,78.48l5.41-3.19V68.91l-1.17-.7.38-.57a34.66,34.66,0,0,0,0-38.22l-.38-.58,1.18-.69V21.77L72,18.58l-3.68,2.16L68,20.51a32.91,32.91,0,0,0-38.23,0l-.33.23-3.67-2.16-5.42,3.19v6.38l1.18.69-.39.58a34.66,34.66,0,0,0,0,38.22l.39.57-1.18.7v6.38l5.42,3.19Zm19.45,4.75a31.4,31.4,0,0,1-17.42-5.28l-.28-.19V68.91l-5.42-3.19-2.87,1.69-.33-.49a33,33,0,0,1,0-36.78l.33-.49,2.87,1.69,5.42-3.19V21.46l.28-.19a31.41,31.41,0,0,1,34.83,0l.29.19v6.71L72,31.34l2.88-1.7.33.49a33.13,33.13,0,0,1,0,36.8l-.33.49L72,65.72l-5.42,3.19v6.71l-.29.19A31.28,31.28,0,0,1,48.85,81.07ZM32.42,74.89a30.18,30.18,0,0,0,32.86,0V68.16L72,64.23l2.5,1.47a31.82,31.82,0,0,0,0-34.34L72,32.83,65.28,28.9V22.14a30.15,30.15,0,0,0-32.86,0V28.9l-6.69,3.93-2.49-1.46a31.73,31.73,0,0,0,0,34.32l2.49-1.46,6.69,3.93Z" transform="translate(-4.67 -1.55)"/><path class="cls-1" d="M48.85,95.51h0a1.4,1.4,0,0,1-1.38-1.11L39.05,59,5.72,49.92a1.45,1.45,0,0,1,0-2.78l33.36-9.86L47.47,2.65a1.41,1.41,0,0,1,2.75,0l8.42,34.63L92,47.14h0a1.45,1.45,0,0,1,1,1.79,1.43,1.43,0,0,1-1,1L58.64,59,50.22,94.4A1.39,1.39,0,0,1,48.85,95.51ZM40.28,58.67,48.7,94.1a.15.15,0,0,0,.18.11A.14.14,0,0,0,49,94.1L57.59,58l34.06-9.27a.16.16,0,0,0,0-.3h0l-33.71-10,.07-.25-.61-.53s0,0,0,0L49,3a.15.15,0,0,0-.18-.11A.14.14,0,0,0,48.7,3L40.28,37.6a.06.06,0,0,0,0,0l-.6.54.07.23L6,48.38a.15.15,0,0,0-.1.19.2.2,0,0,0,.11.11l33.33,9.07,4.37-4.68.92.9Zm8.57-9.13-.93-1.08.9-.91s0,0,.06,0l.89.91Z" transform="translate(-4.67 -1.55)"/><ellipse class="cls-1" cx="44.18" cy="46.98" rx="32.7" ry="33.33"/><path class="cls-2" d="M73,73.12a33.64,33.64,0,0,1-48.23.25,35.26,35.26,0,0,1-.25-49.18c.08-.08.16-.17.25-.25h0a33.65,33.65,0,0,1,48.23,0A35.17,35.17,0,0,1,83,48.53h0A35,35,0,0,1,73,73.12ZM26.74,26a32.08,32.08,0,0,0-9.18,22.54c0,17.58,14,31.89,31.29,31.89A30.81,30.81,0,0,0,71,71.08,32.34,32.34,0,0,0,71,26a30.84,30.84,0,0,0-44.23,0Z" transform="translate(-4.67 -1.55)"/><path class="cls-2" d="M91.83,47.76l-33.72-10-.23.27a.7.7,0,0,0,.15-.62L49.61,2.8a.78.78,0,0,0-1.52,0L39.67,37.44a.72.72,0,0,0,.14.63l-.23-.28-33.71,10a.8.8,0,0,0,0,1.54l33.7,9.18,4.63-5-4.63,5,8.5,35.77a.78.78,0,0,0,1.53,0l8.5-35.77,33.7-9.18A.8.8,0,0,0,91.83,47.76ZM48.4,48a.66.66,0,0,0,.89,0l-.44.52Z" transform="translate(-4.67 -1.55)"/><polygon class="cls-2" points="44.18 9.21 36.41 38.66 44.18 46.98 50.72 38.66 44.18 9.21"/><polygon class="cls-3" points="44.18 9.21 44.18 46.98 51.96 38.66 44.18 9.21"/><polygon class="cls-2" points="51.96 38.66 44.18 46.98 51.96 53.98 79.47 46.98 51.96 38.66"/><polygon class="cls-1" points="79.47 46.98 51.34 54.64 44.18 46.98 79.47 46.98"/><polygon class="cls-2" points="44.18 84.75 51.34 54.64 44.18 46.98 37.64 55.3 44.18 84.75"/><polygon class="cls-1" points="44.18 84.75 37.02 54.64 44.18 46.98 44.18 84.75"/><polygon class="cls-2" points="37.02 54.64 44.18 46.98 36.4 39.98 8.89 46.98 37.02 54.64"/><polygon class="cls-1" points="44.18 46.98 8.89 46.98 36.4 38.66 44.18 46.98"/><polygon class="cls-2" points="67.3 16.29 61.25 19.85 61.25 26.97 67.3 30.54 73.35 26.97 73.35 19.85 67.3 16.29"/><polygon class="cls-2" points="67.3 63.42 61.25 66.99 61.25 74.11 67.3 77.68 73.35 74.11 73.35 66.99 67.3 63.42"/><polygon class="cls-2" points="21.06 63.42 15.01 66.99 15.01 74.11 21.06 77.68 27.11 74.11 27.11 66.99 21.06 63.42"/><polygon class="cls-2" points="21.06 16.29 15.01 19.85 15.01 26.97 21.06 30.54 27.11 26.97 27.11 19.85 21.06 16.29"/><g id="Camada_2" data-name="Camada 2"><ellipse class="cls-4" cx="67.3" cy="70.99" rx="23.3" ry="22.46"/></g><path class="cls-5" d="M63.47,69.31,72,61.45l8.49,7.86,4.94-4.57L72,52.3,58.53,64.73l4.94,4.58M50.1,72.54,55,68,60,72.53,55,77.11Zm13.37,3.22L72,83.62l8.49-7.86,5,4.57h0L72,92.77,58.53,80.34h0l4.94-4.57M84,72.54,88.89,68l4.94,4.58-4.94,4.57Z" transform="translate(-4.67 -1.55)"/><path class="cls-5" d="M77,72.53h0l-5-4.64-3.71,3.43h0l-.43.4-.87.81h0l5,4.64,5-4.64h0" transform="translate(-4.67 -1.55)"/></svg>