<?xml version="1.0" encoding="UTF-8" standalone="no"?>
<svg
   id="Camada_1"
   data-name="Camada 1"
   viewBox="0 0 1917.31 2000"
   version="1.1"
   sodipodi:docname="0xA752dF1dE29CdDbA6f1142db2a75d407092CCE4b.svg"
   inkscape:version="1.1.1 (3bf5ae0d25, 2021-09-20)"
   xmlns:inkscape="http://www.inkscape.org/namespaces/inkscape"
   xmlns:sodipodi="http://sodipodi.sourceforge.net/DTD/sodipodi-0.dtd"
   xmlns="http://www.w3.org/2000/svg"
   xmlns:svg="http://www.w3.org/2000/svg">
  <sodipodi:namedview
     id="namedview89"
     pagecolor="#ffffff"
     bordercolor="#666666"
     borderopacity="1.0"
     inkscape:pageshadow="2"
     inkscape:pageopacity="0.0"
     inkscape:pagecheckerboard="0"
     showgrid="false"
     inkscape:zoom="0.28602469"
     inkscape:cx="936.98204"
     inkscape:cy="1019.1428"
     inkscape:window-width="1920"
     inkscape:window-height="1017"
     inkscape:window-x="-8"
     inkscape:window-y="-8"
     inkscape:window-maximized="1"
     inkscape:current-layer="Camada_1" />
  <defs
     id="defs52">
    <style
       id="style50">.cls-1{fill:#fff;}.cls-2{fill:#1e2e9e;}.cls-3{fill:#ffad05;}</style>
  </defs>
  <rect
     style="fill:#ffffff"
     id="rect454"
     width="1908.9261"
     height="2006.8197"
     x="6.9924035"
     y="0" />
  <path
     class="cls-1"
     d="M958.65,1753.94A751.65,751.65,0,0,1,535.33,1624L457,1669.26l-145.12-83.79V1417.9l13.85-8a753.62,753.62,0,0,1,0-819.81l-13.84-8V414.54L457,330.75,535.32,376A753.59,753.59,0,0,1,1382,376l78.34-45.23,145.12,83.79V582.11l-13.85,8a753.71,753.71,0,0,1,0,819.79l13.85,8v167.57l-145.12,83.79L1382,1624a751.6,751.6,0,0,1-423.33,129.92Zm-422-162.46,7.17,5a726.09,726.09,0,0,0,829.63,0l7.18-5,79.68,46,117.6-67.9V1433.79L1552.36,1419l8.29-12.24a726.06,726.06,0,0,0,0-813.57L1552.37,581l25.56-14.76V430.42l-117.6-67.89-79.68,46-7.17-5a726.07,726.07,0,0,0-829.65,0l-7.17,5-79.67-46-117.6,67.89v135.8L364.94,581l-8.28,12.24a726.1,726.1,0,0,0,0,813.58L365,1419l-25.56,14.76v135.79l117.6,67.9Zm422,101.1a689,689,0,0,1-377.83-112.39l-6.23-4.07V1433.79L457,1365.89l-62.26,35.95-7.2-10.48a691.29,691.29,0,0,1,0-782.71l7.21-10.48L457,634.11l117.6-67.89V423.88l6.23-4.07A689,689,0,0,1,958.66,307.42c135.18,0,265.83,38.69,377.84,111.89l6.23,4.07V566.22l117.6,67.9L1522.94,598l7.21,10.47c79.21,115.11,121.08,250.5,121.08,391.56s-41.87,276.46-121.09,391.57l-7.2,10.47-62.61-36.15-117.6,67.9v142.83l-6.23,4.07C1224.49,1653.89,1093.83,1692.58,958.65,1692.58Zm-356.54-131.4a661.51,661.51,0,0,0,356.54,103.88c127.32,0,250.44-35.73,356.56-103.38V1417.9l145.12-83.78,54.24,31.31c71.44-108.18,109.14-234.25,109.14-365.43S1586,742.76,1514.58,634.57l-54.25,31.32-145.12-83.78V438.32C1209.09,370.67,1086,334.94,958.66,334.94A661.54,661.54,0,0,0,602.11,438.82V582.11L457,665.89,403.1,634.78a663.81,663.81,0,0,0,0,730.45L457,1334.12l145.12,83.78Z"
     id="path54" />
  <path
     class="cls-1"
     d="M958.65,2000h0a30.32,30.32,0,0,1-29.91-23.53l-182.6-753.53L22.83,1029.7a30.77,30.77,0,0,1-.62-59.29L746.13,760.52,928.78,23.37a30.78,30.78,0,0,1,59.75,0L1171.17,760.5,1895.1,970.41h0a30.77,30.77,0,0,1-.62,59.29l-723.31,193.24L988.56,1976.47A30.31,30.31,0,0,1,958.65,2000ZM772.72,1215.81,955.49,1970a3.26,3.26,0,0,0,6.33,0l186.46-769.42,739.09-197.46a3.25,3.25,0,0,0,.07-6.27h0L1155.89,784.73l1.5-5.15-13.11-11.33a1,1,0,0,0,.23-.92L961.82,30a3.26,3.26,0,0,0-6.33,0L772.8,767.33a1,1,0,0,0,.23.94L760,779.69l1.46,5L29.87,996.84a3.25,3.25,0,0,0,.07,6.27l723.31,193.25,94.9-99.65,19.93,19Zm185.93-194.32-20.06-22.86L958,979.19a1,1,0,0,0,1.33,0l19.4,19.43Z"
     id="path56" />
  <circle
     class="cls-1"
     cx="958.65"
     cy="1000"
     r="709.5"
     id="circle58" />
  <path
     class="cls-2"
     d="M1482,1523.38A740.17,740.17,0,1,1,435.27,476.62h0A740,740,0,0,1,1698.83,1000h0A738,738,0,0,1,1482,1523.38ZM478.88,520.23C356,643.15,279.84,812.85,279.84,1000c0,374.3,304.51,678.82,678.81,678.82,181.32,0,351.79-70.61,480-198.82s198.82-298.68,198.82-480-70.61-351.78-198.82-480S1140,321.18,958.66,321.18C771.5,321.18,601.8,397.31,478.88,520.23Z"
     id="path60" />
  <path
     class="cls-2"
     d="M1891.27,983.62,1159.73,771.51l-5,5.67a14.81,14.81,0,0,0,3.12-13.16L975.17,26.68c-4.27-17.23-28.76-17.23-33,0L759.44,764a14.81,14.81,0,0,0,3.2,13.27l-5.06-5.76L26,983.62c-16.55,4.8-16.3,28.34.34,32.78l731.2,195.36,100.54-105.57L757.58,1211.75l184.54,761.48c4.2,17.35,28.87,17.35,33.07,0l184.54-761.48,731.19-195.35C1907.57,1012,1907.82,988.42,1891.27,983.62Zm-942.34,5.93a14.8,14.8,0,0,0,19.45,0l-9.73,11.08Z"
     id="path62" />
  <polygon
     class="cls-2"
     points="958.65 195.94 790 822.83 958.65 1000 1100.58 822.83 958.65 195.94"
     id="polygon64" />
  <polygon
     class="cls-3"
     points="958.65 195.94 958.65 1000 1127.39 822.83 958.65 195.94"
     id="polygon66" />
  <polygon
     class="cls-2"
     points="1127.39 823 958.65 1000 1127.39 1149.02 1724.44 1000 1127.39 823"
     id="polygon68" />
  <polygon
     class="cls-1"
     points="1724.44 1000 1113.98 1163.09 958.65 1000 1724.44 1000"
     id="polygon70" />
  <polygon
     class="cls-2"
     points="958.65 1804.06 1113.98 1163.09 958.65 1000 816.73 1177.17 958.65 1804.06"
     id="polygon72" />
  <polygon
     class="cls-1"
     points="958.65 1804.06 803.32 1163.09 958.65 1000 958.65 1804.06"
     id="polygon74" />
  <polygon
     class="cls-2"
     points="803.32 1163.1 958.65 1000 789.92 850.98 192.87 1000 803.32 1163.1"
     id="polygon76" />
  <polygon
     class="cls-1"
     points="958.65 1000 192.87 1000 789.92 822.83 958.65 1000"
     id="polygon78" />
  <polygon
     class="cls-2"
     points="1460.33 346.64 1328.97 422.48 1328.97 574.16 1460.33 650 1591.69 574.16 1591.69 422.48 1460.33 346.64"
     id="polygon80" />
  <polygon
     class="cls-2"
     points="1460.33 1350.01 1328.97 1425.85 1328.97 1577.53 1460.33 1653.37 1591.69 1577.53 1591.69 1425.85 1460.33 1350.01"
     id="polygon82" />
  <polygon
     class="cls-2"
     points="456.99 1350.01 325.63 1425.85 325.63 1577.53 456.99 1653.37 588.35 1577.53 588.35 1425.85 456.99 1350.01"
     id="polygon84" />
  <polygon
     class="cls-2"
     points="456.99 346.64 325.63 422.48 325.63 574.16 456.99 650 588.35 574.16 588.35 422.48 456.99 346.64"
     id="polygon86" />
</svg>
